<?xml version="1.0" encoding="UTF-8"?>
<svg version="1.1"
    xmlns="http://www.w3.org/2000/svg" width="1200" height="1200">
    <path d="M0 0 C0.66 0 1.32 0 2 0 C2.13986328 0.60545654 2.27972656 1.21091309 2.42382812 1.8347168 C18.0683682 69.17289189 40.81902898 127.93416167 91 177 C90.62488281 176.50371094 90.24976563 176.00742187 89.86328125 175.49609375 C88.23567925 173.33552385 86.61634353 171.16900432 85 169 C84.50113281 168.33355469 84.00226563 167.66710937 83.48828125 166.98046875 C80 162.23280802 80 162.23280802 80 160 C79.34 160 78.68 160 78 160 C76.30602596 157.52949627 74.73020741 155.06284824 73.1875 152.5 C72.76146484 151.80390625 72.33542969 151.1078125 71.89648438 150.390625 C71.03321599 148.9801411 70.17369463 147.56735726 69.31787109 146.15234375 C67.56315379 143.28654387 65.74133619 140.46474173 63.91137695 137.64648438 C63 136 63 136 63 134 C62.34 134 61.68 134 61 134 C60.16180842 132.37750059 59.3295884 130.75191503 58.5 129.125 C57.80390625 127.76761719 57.80390625 127.76761719 57.09375 126.3828125 C56 124 56 124 56 122 C55.34 121.67 54.68 121.34 54 121 C52.9296875 119.22265625 52.9296875 119.22265625 51.875 117.0625 C51.52179688 116.35222656 51.16859375 115.64195312 50.8046875 114.91015625 C50 113 50 113 50 111 C51.02955811 110.87471924 52.05911621 110.74943848 53.11987305 110.62036133 C119.25516448 102.53196642 200.29570491 91.37828417 249.1796875 40.7421875 C251 39 251 39 253 39 C253.2475 38.4225 253.495 37.845 253.75 37.25 C255.18299988 34.67060021 256.78424676 32.93878408 259 31 C259.66 31 260.32 31 261 31 C259.51330148 34.44042276 257.53310132 36.69242086 254.9375 39.375 C249.42044117 45.41370382 245.14230815 51.99022763 241 59 C240.48373047 59.8677002 240.48373047 59.8677002 239.95703125 60.75292969 C216.92715498 100.04048682 212.27701261 147.80053609 206 192 C205.22809326 192.05534912 204.45618652 192.11069824 203.66088867 192.16772461 C200.1694568 192.42032312 196.67848785 192.67884036 193.1875 192.9375 C191.97255859 193.02451172 190.75761719 193.11152344 189.50585938 193.20117188 C188.34248047 193.28818359 187.17910156 193.37519531 185.98046875 193.46484375 C184.90692139 193.543396 183.83337402 193.62194824 182.72729492 193.70288086 C179.90982842 193.91248862 179.90982842 193.91248862 177 195 C173.90775724 195.30540669 170.81488281 195.50832311 167.71484375 195.71875 C165.03617684 195.83496737 165.03617684 195.83496737 163 197 C161.55171781 197.16809285 160.09864757 197.2959378 158.64453125 197.40234375 C152.53936577 197.96947833 146.66189034 199.21136525 140.6875 200.5625 C139.53193604 200.82135986 138.37637207 201.08021973 137.18579102 201.34692383 C120.9683011 205.05828633 104.87050941 209.46397026 89.00805664 214.4777832 C87 215 87 215 84 215 C83.67 215.66 83.34 216.32 83 217 C81.11254883 217.71313477 81.11254883 217.71313477 78.64453125 218.37890625 C63.1298569 222.78064179 48.07570953 228.83695436 33.1875 235 C31.97078613 235.50345947 30.75407227 236.00691895 29.50048828 236.52563477 C23.92414134 238.858458 18.39368628 241.25001978 12.9296875 243.8359375 C12.01421143 244.26648438 11.09873535 244.69703125 10.15551758 245.140625 C8.48231292 245.93713406 6.8172448 246.7510775 5.1628418 247.5859375 C4.42976807 247.9365625 3.69669434 248.2871875 2.94140625 248.6484375 C2.31951416 248.95958496 1.69762207 249.27073242 1.05688477 249.59130859 C-3.65427918 250.52739031 -8.64477182 247.35166594 -12.87890625 245.46875 C-13.96494141 244.98792969 -15.05097656 244.50710938 -16.16992188 244.01171875 C-17.28947266 243.51285156 -18.40902344 243.01398438 -19.5625 242.5 C-21.79264135 241.50967906 -24.02309859 240.52006908 -26.25390625 239.53125 C-27.23689697 239.09361328 -28.2198877 238.65597656 -29.23266602 238.20507812 C-33.48845654 236.35182872 -37.41062367 234.78675023 -42 234 C-42 233.34 -42 232.68 -42 232 C-43.85625 231.6596875 -43.85625 231.6596875 -45.75 231.3125 C-50.57022086 230.23802352 -54.87177127 228.46201927 -59.39453125 226.5078125 C-63.90998257 224.61944391 -68.47478733 222.8913469 -73.0625 221.1875 C-73.8963623 220.87337158 -74.73022461 220.55924316 -75.58935547 220.2355957 C-76.37584473 219.94515381 -77.16233398 219.65471191 -77.97265625 219.35546875 C-79.02851929 218.96331177 -79.02851929 218.96331177 -80.10571289 218.56323242 C-82.14988902 217.85749953 -82.14988902 217.85749953 -85 218 C-85 217.34 -85 216.68 -85 216 C-85.85658203 215.85304688 -85.85658203 215.85304688 -86.73046875 215.703125 C-91.56820411 214.81095123 -96.22227787 213.67531341 -100.91015625 212.1796875 C-107.66363737 210.07356255 -114.46516069 208.19892119 -121.30371094 206.39013672 C-123.26327018 205.8714877 -125.22152591 205.34811713 -127.1796875 204.82421875 C-152.18444894 198.17835038 -179.82273576 191.95290943 -205.8046875 192.9921875 C-208 193 -208 193 -210 192 C-210.7109375 189.46484375 -210.7109375 189.46484375 -211.375 185.9375 C-211.4994751 185.28555664 -211.6239502 184.63361328 -211.75219727 183.96191406 C-213.10937375 176.71149471 -214.2564418 169.42361391 -215.44433594 162.14404297 C-216.88870994 153.40764365 -218.61447837 144.75072647 -220.53295898 136.10693359 C-220.8553255 134.65266121 -221.17220928 133.19716641 -221.48461914 131.74072266 C-222.54181277 126.85504104 -223.76208257 122.04238228 -225.1875 117.25 C-225.49917114 116.19111572 -225.49917114 116.19111572 -225.81713867 115.11083984 C-227.95076174 107.96995452 -230.33215148 100.91227763 -232.7644043 93.86816406 C-233.20006714 92.59150879 -233.20006714 92.59150879 -233.64453125 91.2890625 C-233.90596924 90.53318848 -234.16740723 89.77731445 -234.43676758 88.99853516 C-235 87 -235 87 -235 84 C-235.66 83.67 -236.32 83.34 -237 83 C-237.7890625 81.27734375 -237.7890625 81.27734375 -238.625 78.9375 C-243.01889305 67.61600915 -248.7277658 57.1363912 -255.1875 46.875 C-255.68636719 46.0816626 -256.18523437 45.2883252 -256.69921875 44.47094727 C-258.92404298 41.00020667 -261.17325226 37.69842922 -263.86328125 34.5703125 C-266 32 -266 32 -266 30 C-262.80012522 31.37532415 -261.08527239 32.84345311 -258.9375 35.5625 C-254.50962769 40.76735624 -249.39536903 44.83515373 -244 49 C-243.46407227 49.42152344 -242.92814453 49.84304688 -242.37597656 50.27734375 C-188.05004028 92.82897775 -115.99563813 105.11083772 -49 111 C-54.00934165 133.41410656 -74.70714815 157.33385433 -88.69140625 175.03515625 C-90.94888465 177.7338922 -90.94888465 177.7338922 -92 180 C-89.9102307 177.96458886 -87.82825997 175.92210832 -85.75 173.875 C-84.87021484 173.02035156 -84.87021484 173.02035156 -83.97265625 172.1484375 C-81.22861429 169.43522747 -78.77389297 166.83782299 -76.703125 163.5703125 C-76.14109375 162.72210937 -75.5790625 161.87390625 -75 161 C-74.34 161 -73.68 161 -73 161 C-73 160.34 -73 159.68 -73 159 C-71.36009005 157.30699944 -69.68751201 155.64555729 -68 154 C-66.19914762 152.00007829 -64.47223824 149.94271717 -62.75 147.875 C-62.30398438 147.35035156 -61.85796875 146.82570313 -61.3984375 146.28515625 C-59.36924543 143.85627483 -58.01108074 142.03324221 -57 139 C-55.66666667 137.66666667 -54.33333333 136.33333333 -53 135 C-51.39812989 132.81358782 -49.8672596 130.63330602 -48.375 128.375 C-47.94477539 127.72619873 -47.51455078 127.07739746 -47.07128906 126.40893555 C-41.9292226 118.52686091 -37.4181412 110.30368457 -33 102 C-32.16855469 100.44539063 -32.16855469 100.44539063 -31.3203125 98.859375 C-26.65495154 89.83127109 -22.83914918 80.40202006 -19 71 C-18.67 70.19643066 -18.34 69.39286133 -18 68.56494141 C-12.67365157 54.90316976 -8.91693791 40.45430713 -5.625 26.1875 C-5.3868457 25.15858643 -5.14869141 24.12967285 -4.90332031 23.06958008 C-3.45299404 16.58339869 -2.35508606 10.09643301 -1.44287109 3.51293945 C-1 1 -1 1 0 0 Z M97 183 C98 185 98 185 98 185 Z " fill="#848382" transform="translate(605,402)"/>
    <path d="M0 0 C0.33 0 0.66 0 1 0 C0.2376528 5.63422225 -0.73389549 11.21514151 -1.75 16.80859375 C-14.04797981 85.36188029 -23.08623666 154.51474839 -28 224 C-28.06058594 224.85323853 -28.12117188 225.70647705 -28.18359375 226.58557129 C-30.1546407 254.72089771 -30.23626965 282.80576055 -30 311 C-30.69520752 311.03440186 -31.39041504 311.06880371 -32.10668945 311.10424805 C-74.11538965 313.30446012 -114.98585261 321.22785877 -155.6875 331.625 C-156.56462646 331.84875305 -157.44175293 332.0725061 -158.34545898 332.30303955 C-170.29258532 335.36696112 -182.11458321 338.76560486 -193.90921021 342.36984253 C-195.77421079 342.93194784 -197.64680361 343.46872058 -199.52026367 344.00195312 C-203.65049382 345.18657256 -207.74649669 346.46449163 -211.84375 347.7578125 C-213.10186241 348.15425964 -213.10186241 348.15425964 -214.38539124 348.55871582 C-217.0908153 349.41240126 -219.7955292 350.26829964 -222.5 351.125 C-223.41884979 351.41590515 -224.33769958 351.7068103 -225.28439331 352.00653076 C-241.21051639 357.05524592 -257.07507311 362.23773616 -272.70874023 368.14160156 C-275.54524925 369.20427239 -278.39006016 370.24355849 -281.234375 371.28515625 C-297.66130709 377.33788477 -313.92740709 383.73203875 -330.125 390.375 C-331.52993713 390.95086349 -331.52993713 390.95086349 -332.96325684 391.5383606 C-335.687338 392.65622123 -338.41018663 393.77703779 -341.1328125 394.8984375 C-342.42040466 395.42614998 -342.42040466 395.42614998 -343.73400879 395.96452332 C-347.60189834 397.55779657 -351.44216959 399.18210144 -355.23730469 400.94238281 C-356.19901077 401.38150497 -356.19901077 401.38150497 -357.18014526 401.82949829 C-358.85449044 402.60064398 -360.51928268 403.39244133 -362.18310547 404.18603516 C-365 405 -365 405 -367.71118164 404.26416016 C-370.58103162 402.67908462 -373.00637072 400.80579505 -375.5625 398.75 C-381.46499621 394.09129774 -387.53706675 389.70016824 -393.6875 385.375 C-394.5731665 384.7469043 -395.45883301 384.11880859 -396.37133789 383.47167969 C-397.61645142 382.6001123 -397.61645142 382.6001123 -398.88671875 381.7109375 C-399.63139404 381.18806152 -400.37606934 380.66518555 -401.14331055 380.12646484 C-402.92303676 378.82709824 -402.92303676 378.82709824 -405 379 C-406.33618537 377.66952482 -407.66906259 376.33572496 -409 375 C-410.55200693 373.99172339 -412.13773812 373.03382278 -413.75 372.125 C-417.80885569 369.76381002 -421.52639663 367.19283547 -425.23828125 364.32421875 C-427.39435492 362.70357801 -429.65045197 361.32162076 -432 360 C-430.37351514 356.74703027 -426.88584655 356.18409823 -423.63671875 354.9453125 C-422.87069336 354.6477858 -422.10466797 354.35025909 -421.31542969 354.04371643 C-418.77613797 353.06183092 -416.23236431 352.09234435 -413.6875 351.125 C-412.81332428 350.7908609 -411.93914856 350.4567218 -411.03848267 350.11245728 C-392.87262755 343.1805454 -374.54628989 336.83437657 -356 331 C-355.29462097 330.77783813 -354.58924194 330.55567627 -353.86248779 330.32678223 C-294.75936164 311.77615357 -230.29132933 296.98186535 -168 298 C-168.33 297.34 -168.66 296.68 -169 296 C-172.97513218 261.10571055 -167.36857268 224.61508174 -162.4375 190.0625 C-162.33771851 189.36054504 -162.23793701 188.65859009 -162.13513184 187.93536377 C-161.6568804 184.60070786 -161.15394739 181.27346655 -160.62011719 177.94702148 C-160.18662691 175.18787295 -159.80440102 172.44972503 -159.46582031 169.67993164 C-157.87466798 157.87839037 -157.87466798 157.87839037 -153.3671875 154.05078125 C-151.89986663 153.09041916 -150.40006154 152.17824427 -148.875 151.3125 C-147.24159035 150.262062 -145.61012587 149.20859407 -143.98046875 148.15234375 C-143.1507959 147.63526855 -142.32112305 147.11819336 -141.46630859 146.58544922 C-137.54167226 144.06252422 -133.8714774 141.23333107 -130.1875 138.375 C-129.4852832 137.83625244 -128.78306641 137.29750488 -128.05957031 136.74243164 C-122.5570901 132.49841526 -117.23373611 128.06864201 -111.96875 123.53515625 C-109.2284968 121.19512424 -106.4405448 118.93579533 -103.625 116.6875 C-97.10654632 111.37826671 -91.0468794 105.6007551 -84.94384766 99.82617188 C-83.04283751 98.04024424 -81.12493167 96.27485693 -79.19921875 94.515625 C-70.94926766 86.95931535 -63.19793858 79.08006869 -55.66113281 70.81396484 C-54.04390447 69.04794388 -52.41196331 67.29703888 -50.7734375 65.55078125 C-44.5585773 58.91569573 -38.67270473 52.10991683 -33 45 C-32.07908815 43.87030792 -31.15715889 42.74144468 -30.234375 41.61328125 C-20.16246415 29.24403377 -10.53342244 16.46895679 -2.171875 2.87109375 C-1 1 -1 1 0 0 Z " fill="#3A3633" transform="translate(1147,353)"/>
    <path d="M0 0 C3.46342133 3.18069306 5.92535142 6.75233217 8.4375 10.6875 C19.70938361 27.93622184 32.8423283 44.44430762 46.8046875 59.59375 C48.66750787 61.63556023 50.48803415 63.70307137 52.30078125 65.7890625 C55.88757612 69.89837338 59.57611095 73.90170488 63.3125 77.875 C63.96549072 78.56972412 64.61848145 79.26444824 65.29125977 79.98022461 C72.1825285 87.28739699 79.10777837 94.49838312 86.75 101.03125 C89.08870727 103.07761886 91.36035751 105.18364389 93.63085938 107.30493164 C99.88559074 113.14467865 106.32278592 118.64422671 113 124 C114.19273342 124.9827665 115.38405401 125.96724931 116.57421875 126.953125 C125.3146958 134.16996165 134.27467863 141.02829714 143.4296875 147.7109375 C144.16711182 148.26201172 144.90453613 148.81308594 145.66430664 149.38085938 C147.99615624 151.06615491 147.99615624 151.06615491 150.67749023 152.41601562 C154.93089352 154.81317046 157.45002786 156.60120374 159.27148438 161.23388672 C160.19144348 165.40091724 160.79740642 169.5182743 161.3125 173.75 C161.53609027 175.3241093 161.76297357 176.8977539 161.99291992 178.47094727 C162.60007686 182.73107887 163.14383971 186.99681832 163.66601562 191.26812744 C164.00912234 194.07461748 164.36133525 196.87986114 164.71484375 199.68505859 C166.27076603 212.10949104 167.72585096 224.54341246 169 237 C169.11633789 238.09699219 169.23267578 239.19398438 169.35253906 240.32421875 C170.26772738 250.206959 170.15100929 260.12613166 170.13037109 270.04199219 C170.12495114 273.15304298 170.13037565 276.26395325 170.13671875 279.375 C170.13605895 281.35677115 170.13477984 283.33854222 170.1328125 285.3203125 C170.13483673 286.248367 170.13686096 287.17642151 170.13894653 288.13259888 C170.13421829 289.42071976 170.13421829 289.42071976 170.12939453 290.73486328 C170.12859894 291.48841095 170.12780334 292.24195862 170.12698364 293.01834106 C170 295 170 295 169 298 C169.62527588 298.01458252 170.25055176 298.02916504 170.89477539 298.04418945 C255.34834465 300.20301522 337.86743775 321.59413192 432 358 C432 358.99 432 359.98 432 361 C430.5222168 362.22338867 430.5222168 362.22338867 428.44921875 363.41796875 C427.31540771 364.08638794 427.31540771 364.08638794 426.15869141 364.76831055 C425.34319824 365.23664307 424.52770508 365.70497559 423.6875 366.1875 C417.42563061 369.89025028 411.42578911 373.70551129 405.60546875 378.08203125 C401.65292868 380.99162221 397.5424751 383.65367685 393.43359375 386.3359375 C390.95831053 387.91864189 390.95831053 387.91864189 389 390 C387.72176055 390.87413236 386.42760594 391.72511047 385.125 392.5625 C382.25730784 394.40667502 379.65874406 396.28966022 377.0546875 398.5 C376.04664063 399.345625 375.03859375 400.19125 374 401.0625 C373.071875 401.87847656 372.14375 402.69445312 371.1875 403.53515625 C367.76782346 405.10669878 367.41286858 405.19075651 364.05859375 404.1328125 C362.36124455 403.44892563 360.67646857 402.73358618 359 402 C357.24968588 401.28669994 355.4993526 400.57344651 353.74868774 399.86100769 C349.83568817 398.25759686 345.94289902 396.60569726 342.04663086 394.9621582 C340.10649878 394.14507367 338.16465342 393.33217067 336.22265625 392.51953125 C335.07547119 392.03589111 333.92828613 391.55225098 332.74633789 391.05395508 C330.17906831 389.88057022 330.17906831 389.88057022 328 390 C328 389.34 328 388.68 328 388 C327.27256592 387.87020752 326.54513184 387.74041504 325.7956543 387.60668945 C323.14989563 387.03252909 320.79215339 386.26522669 318.26953125 385.29296875 C316.94018555 384.7834668 316.94018555 384.7834668 315.58398438 384.26367188 C314.66939453 383.90853516 313.75480469 383.55339844 312.8125 383.1875 C311.91724609 382.84396484 311.02199219 382.50042969 310.09960938 382.14648438 C306.45346427 380.74331084 302.81285613 379.33503908 299.20068359 377.84619141 C298.3133252 377.48058105 297.4259668 377.1149707 296.51171875 376.73828125 C295.71596436 376.40481689 294.92020996 376.07135254 294.1003418 375.7277832 C291.89803514 374.83629572 291.89803514 374.83629572 289 375 C289 374.34 289 373.68 289 373 C288.14535156 372.80664062 287.29070312 372.61328125 286.41015625 372.4140625 C284.75306641 372.02347656 284.75306641 372.02347656 283.0625 371.625 C281.40927734 371.24214844 281.40927734 371.24214844 279.72265625 370.8515625 C278.82417969 370.57054687 277.92570312 370.28953125 277 370 C276.67 369.34 276.34 368.68 276 368 C274.00640783 367.63026851 272.00457132 367.30463903 270 367 C267.6944587 366.31596824 265.40320299 365.5827021 263.125 364.8125 C261.97257812 364.42707031 260.82015625 364.04164063 259.6328125 363.64453125 C256.26425456 362.47520752 252.93300584 361.21734161 249.60145569 359.9467926 C240.389476 356.44323523 231.08927691 353.32750562 221.6875 350.375 C220.89172546 350.12387451 220.09595093 349.87274902 219.27606201 349.61401367 C205.63117291 345.31836931 191.90532329 341.3370555 178.125 337.5 C177.2307431 337.25078796 176.33648621 337.00157593 175.41513062 336.74481201 C166.71134551 334.32608481 157.99440234 331.95660068 149.2421875 329.71875 C148.03159668 329.40873047 146.82100586 329.09871094 145.57373047 328.77929688 C141.70956737 327.93666751 137.92893513 327.43480576 134 327 C134 326.34 134 325.68 134 325 C132.69119873 324.86787109 131.38239746 324.73574219 130.03393555 324.59960938 C125.45385331 324.08935111 120.97330167 323.311891 116.45703125 322.40625 C115.6849382 322.25466431 114.91284515 322.10307861 114.11735535 321.94689941 C111.68170561 321.46806132 109.24707797 320.98425485 106.8125 320.5 C104.36702338 320.01674621 101.92134334 319.53454379 99.47550964 319.05310059 C97.96265516 318.7549723 96.45003623 318.45564524 94.93769836 318.15490723 C86.49525829 316.48360212 78.02938187 315.32321293 69.49194336 314.27050781 C68.06189992 314.0930139 66.63219488 313.91276726 65.20288086 313.72949219 C53.8151344 312.27003499 42.46970722 311.47991067 31 311 C31.01047363 309.8567627 31.02094727 308.71352539 31.03173828 307.53564453 C31.51855007 248.72214024 27.30408836 190.35832716 20 132 C19.84176758 130.71770508 19.68353516 129.43541016 19.52050781 128.11425781 C17.69996668 113.41329588 15.71741915 98.73519009 13.64816284 84.06738281 C13.42562337 82.48955589 13.20403458 80.91159456 12.98342896 79.33349609 C12.67628478 77.1423533 12.36432793 74.95195336 12.05078125 72.76171875 C11.78261597 70.873927 11.78261597 70.873927 11.5090332 68.94799805 C11.15957017 66.07872132 11.15957017 66.07872132 10 64 C9.69562057 61.60414213 9.43171425 59.21458036 9.1875 56.8125 C7.48921382 41.40780986 4.63363451 26.13780187 1.21923828 11.02587891 C0.39165211 7.28798972 -0.21217039 3.83422198 0 0 Z " fill="#3A3633" transform="translate(58,353)"/>
    <path d="M0 0 C3.58134352 1.65784912 5.2951897 3.33031424 7.6875 6.5 C11.8859017 11.90679776 16.37874567 16.95388841 21 22 C21.91228021 23.01618985 22.82370773 24.0331457 23.734375 25.05078125 C28.21700252 30.03760726 32.71339073 34.86157276 37.86328125 39.17578125 C40.00662768 41.00565836 42.06344366 42.91328766 44.1184082 44.84130859 C51.07800685 51.34866302 58.4253356 57.22863901 66 63 C66.9597876 63.73718262 66.9597876 63.73718262 67.93896484 64.48925781 C88.58698353 80.33316063 110.56079642 94.17120733 133.625 106.25 C134.55304443 106.74234131 135.48108887 107.23468262 136.43725586 107.74194336 C141.32079318 110.28212776 146.18696011 112.50774619 151.33984375 114.44921875 C167.39696546 120.69649131 167.39696546 120.69649131 170.5625 127.3046875 C172.09245103 131.69949059 172.85258632 136.16383631 173.50634766 140.76123047 C174.05781033 144.37928382 174.79994747 147.9270357 175.57421875 151.50390625 C178.91731188 167.06307966 181.90535067 182.69759547 182.6875 198.625 C182.75807617 199.71941406 182.75807617 199.71941406 182.83007812 200.8359375 C183.1859194 207.60275523 182.61583152 214.26053878 182 221 C182.86125488 221.03440186 183.72250977 221.06880371 184.60986328 221.10424805 C254.53790802 224.07197991 322.14764347 239.78103073 387 266 C387 266.66 387 267.32 387 268 C386.18144531 268.40347656 385.36289062 268.80695313 384.51953125 269.22265625 C380.00193382 271.45980921 375.49947646 273.72665365 371 276 C369.9382959 276.53641113 368.8765918 277.07282227 367.78271484 277.62548828 C352.61828116 285.31368274 337.72495836 293.27643872 323.109375 301.9765625 C322.24892578 302.48219727 321.38847656 302.98783203 320.50195312 303.50878906 C318.8326806 304.50370676 317.17990407 305.52683171 315.54492188 306.57714844 C309.78692287 310.1332771 309.78692287 310.1332771 305.86328125 309.46875 C304.44595703 308.74171875 304.44595703 308.74171875 303 308 C301.87980469 307.5978125 300.75960938 307.195625 299.60546875 306.78125 C298.47753906 306.3584375 297.34960938 305.935625 296.1875 305.5 C295.04667969 305.0771875 293.90585937 304.654375 292.73046875 304.21875 C290 303 290 303 289 301 C287.01600167 300.32021486 285.02769325 299.65201955 283.02734375 299.02197266 C279.31334204 297.76819756 275.69532707 296.32545236 272.0625 294.85546875 C270.97001953 294.41474533 270.97001953 294.41474533 269.85546875 293.96511841 C266.81603648 292.73688113 263.77849345 291.50403123 260.74169922 290.26928711 C250.54682795 286.12949105 240.3043788 282.24267714 229.90142822 278.65670776 C227.14228059 277.70376426 224.38993715 276.73163763 221.63671875 275.76171875 C199.93982948 268.17561989 178.16745025 261.01821488 156 254.9375 C155.27505341 254.73737305 154.55010681 254.53724609 153.80319214 254.33105469 C151.74544588 253.76517227 149.68575109 253.20717178 147.625 252.65234375 C145.84996094 252.17269165 145.84996094 252.17269165 144.0390625 251.68334961 C140.86873046 250.85374806 140.86873046 250.85374806 137 251 C137 250.34 137 249.68 137 249 C135.78763672 248.92652344 135.78763672 248.92652344 134.55078125 248.8515625 C133.48214844 248.77679687 132.41351563 248.70203125 131.3125 248.625 C129.72888672 248.52058594 129.72888672 248.52058594 128.11328125 248.4140625 C125.04629475 248.00615714 122.84933889 247.15432554 120 246 C117.39319815 245.46634603 114.81128925 244.98780175 112.1875 244.5625 C110.64825845 244.30445117 109.10919914 244.04531325 107.5703125 243.78515625 C106.79848633 243.65512207 106.02666016 243.52508789 105.23144531 243.39111328 C101.99571015 242.82397458 98.78191824 242.15276952 95.5625 241.5 C88.43876022 240.11842071 81.2674135 239.22000466 74.0625 238.375 C73.02746338 238.25189453 71.99242676 238.12878906 70.92602539 238.00195312 C61.96780758 236.9936749 52.99915915 236.47048259 44 236 C43.86537354 234.10338623 43.86537354 234.10338623 43.72802734 232.16845703 C37.99708216 152.55564309 19.90582847 77.13200813 0 0 Z " fill="#615E5D" transform="translate(198,393)"/>
    <path d="M0 0 C1.11861537 3.35584611 0.96678645 3.73974587 -0.30078125 6.83984375 C-0.61345947 7.63632324 -0.9261377 8.43280273 -1.24829102 9.25341797 C-1.59947998 10.13916504 -1.95066895 11.02491211 -2.3125 11.9375 C-26.40764327 75.611737 -33.28675728 145.42024106 -39.38916016 212.71240234 C-39.48977753 213.81742599 -39.5903949 214.92244965 -39.69406128 216.06095886 C-39.88225995 218.1358824 -40.06836433 220.21099738 -40.25198364 222.28633118 C-40.66906967 226.89807598 -41.14591013 231.44342097 -42 236 C-42.80630859 236.05534912 -43.61261719 236.11069824 -44.44335938 236.16772461 C-48.12906809 236.42203004 -51.81453158 236.67973658 -55.5 236.9375 C-56.7684375 237.02451172 -58.036875 237.11152344 -59.34375 237.20117188 C-70.59368452 237.9921829 -81.49932452 239.52255849 -92.625 241.375 C-94.54119141 241.68824219 -94.54119141 241.68824219 -96.49609375 242.0078125 C-104.04126222 243.2615183 -111.52039154 244.69125688 -118.98974609 246.33837891 C-120.79969696 246.73618644 -122.61324621 247.11872259 -124.43261719 247.47094727 C-127.79236007 248.16327922 -131.10854112 249.00833826 -134.4296875 249.86328125 C-135.15938248 250.05083481 -135.88907745 250.23838837 -136.6408844 250.43162537 C-178.884563 261.34100721 -220.51654775 274.39791177 -260.83349609 291.15673828 C-261.74953613 291.53556152 -262.66557617 291.91438477 -263.609375 292.3046875 C-264.39280273 292.63452637 -265.17623047 292.96436523 -265.98339844 293.30419922 C-268 294 -268 294 -271 294 C-271.33 294.66 -271.66 295.32 -272 296 C-273.72729492 296.86621094 -273.72729492 296.86621094 -275.98046875 297.734375 C-276.80804687 298.05905762 -277.635625 298.38374023 -278.48828125 298.71826172 C-279.37902344 299.05873535 -280.26976562 299.39920898 -281.1875 299.75 C-288.74159106 302.59855701 -288.74159106 302.59855701 -296.01953125 306.0703125 C-304.35580513 310.39282488 -304.35580513 310.39282488 -309.171875 309.2421875 C-312.32404622 307.7141045 -315.11222326 305.97962074 -318 304 C-319.84916344 302.88747466 -321.70303809 301.78272576 -323.5625 300.6875 C-324.34753906 300.19636719 -325.13257813 299.70523437 -325.94140625 299.19921875 C-328.07871412 297.86027 -328.07871412 297.86027 -331 297 C-331 296.34 -331 295.68 -331 295 C-332.32 295 -333.64 295 -335 295 C-335 294.34 -335 293.68 -335 293 C-335.65484375 292.7525 -336.3096875 292.505 -336.984375 292.25 C-340.82350341 290.65865143 -344.5286887 288.84726964 -348.25 287 C-349.34828125 286.46632813 -349.34828125 286.46632813 -350.46875 285.921875 C-355.88246613 283.23506773 -355.88246613 283.23506773 -357 281 C-358.98786005 280.29796234 -360.99027444 279.6367477 -363 279 C-364.81614113 278.16827238 -366.61600302 277.30013965 -368.3984375 276.3984375 C-369.37167969 275.90859375 -370.34492187 275.41875 -371.34765625 274.9140625 C-372.34667969 274.40617187 -373.34570312 273.89828125 -374.375 273.375 C-375.39722656 272.859375 -376.41945313 272.34375 -377.47265625 271.8125 C-379.98362669 270.54528127 -382.49264561 269.27435444 -385 268 C-385 267.34 -385 266.68 -385 266 C-318.15103407 240.57999842 -251.65618704 224.18184513 -180 221 C-180.11915771 219.47306519 -180.11915771 219.47306519 -180.24072266 217.9152832 C-180.85132831 209.59633546 -181.11546374 201.5154317 -180.375 193.1875 C-180.28436279 192.13473877 -180.19372559 191.08197754 -180.1003418 189.99731445 C-178.40791925 172.22491127 -174.58494948 154.82319971 -170.375 137.5 C-170.0860083 136.29432373 -169.7970166 135.08864746 -169.49926758 133.84643555 C-169.21849365 132.73179932 -168.93771973 131.61716309 -168.6484375 130.46875 C-168.40270996 129.48326172 -168.15698242 128.49777344 -167.90380859 127.48242188 C-166.23662169 122.90328724 -163.45720826 121.56415557 -159.13951111 119.50152588 C-158.49663651 119.20195984 -157.8537619 118.9023938 -157.19140625 118.59375 C-155.80026186 117.93138044 -154.40914985 117.26894286 -153.01806641 116.60644531 C-152.29049133 116.26278931 -151.56291626 115.9191333 -150.81329346 115.56506348 C-109.04145741 95.79885313 -70.62271405 71.06845398 -36.75390625 39.5078125 C-34.82227078 37.74879126 -32.8954305 36.07719762 -30.875 34.4296875 C-28.46022414 32.38893942 -26.45736332 30.41410171 -24.4375 28 C-21.74902154 24.84879867 -18.9301572 21.9301572 -16 19 C-10.32420763 12.91572257 -4.99758045 6.65272767 0 0 Z " fill="#615E5D" transform="translate(1006,393)"/>
    <path d="M0 0 C0.74597443 0.37434677 1.49194885 0.74869354 2.26052856 1.13438416 C3.44946213 1.71433388 3.44946213 1.71433388 4.66241455 2.30599976 C7.2352747 3.56585374 9.79884942 4.8433696 12.36209106 6.12266541 C14.13337638 6.99725487 15.90486179 7.8714392 17.67654419 8.745224 C30.9564418 15.31976586 44.10605909 22.10443387 56.98709106 29.43516541 C58.19365356 30.11989929 58.19365356 30.11989929 59.42459106 30.81846619 C61.62023363 32.07318443 63.80637943 33.34220432 65.98709106 34.62266541 C66.61164185 34.98569763 67.23619263 35.34872986 67.87966919 35.72276306 C69.28531519 36.56902772 70.64315267 37.49397778 71.98709106 38.43516541 C71.98709106 39.09516541 71.98709106 39.75516541 71.98709106 40.43516541 C71.08216919 40.81543884 70.17724731 41.19571228 69.24490356 41.58750916 C44.05216184 52.3916875 18.30564725 64.69532202 -4.93478394 79.26719666 C-7.01290894 80.43516541 -7.01290894 80.43516541 -9.45040894 80.24766541 C-12.31594057 79.3390822 -15.17437588 78.42535135 -18.01290894 77.43516541 C-18.01290894 76.77516541 -18.01290894 76.11516541 -18.01290894 75.43516541 C-18.65953491 75.19596375 -19.30616089 74.95676208 -19.97238159 74.71031189 C-23.9835798 73.02808222 -27.80218921 71.03546676 -31.66134644 69.03282166 C-33.39679906 68.13784524 -35.13231582 67.24299318 -36.8678894 66.34825134 C-37.77069641 65.8818927 -38.67350342 65.41553406 -39.60366821 64.93504333 C-58.64338641 55.10516105 -58.64338641 55.10516105 -77.88790894 45.68516541 C-78.79975952 45.25083191 -79.71161011 44.81649841 -80.65109253 44.3690033 C-83.75872199 42.9045551 -86.75050148 41.52263456 -90.01290894 40.43516541 C-88.72672702 36.57661967 -87.47318717 36.28218012 -83.95822144 34.35313416 C-82.88217651 33.75790955 -81.80613159 33.16268494 -80.69747925 32.54942322 C-79.51123684 31.90665169 -78.32470537 31.2644134 -77.13790894 30.62266541 C-75.91471216 29.95346189 -74.6917335 29.28385957 -73.46896362 28.61387634 C-60.76169539 21.67536552 -47.93974522 14.95538999 -35.01290894 8.43516541 C-33.91704468 7.88183533 -32.82118042 7.32850525 -31.69210815 6.75840759 C-28.53618892 5.17551024 -25.3710218 3.61338886 -22.20040894 2.06016541 C-21.25778198 1.58933533 -20.31515503 1.11850525 -19.34396362 0.63340759 C-18.02573608 -0.00226135 -18.02573608 -0.00226135 -16.68087769 -0.65077209 C-15.92057251 -1.02250549 -15.16026733 -1.39423889 -14.37692261 -1.77723694 C-8.88488224 -3.60697175 -5.00215572 -2.40895041 0 0 Z " fill="#615E5D" transform="translate(612.0129089355469,670.5648345947266)"/>
    <path d="M0 0 C3.38454871 1.79240893 6.65416966 3.72952787 9.890625 5.7734375 C10.58953857 6.21333008 11.28845215 6.65322266 12.00854492 7.10644531 C26.71153105 16.45946491 40.71105168 26.94218878 54.640625 37.3984375 C55.48625 38.02669434 56.331875 38.65495117 57.203125 39.30224609 C58.028125 39.92566895 58.853125 40.5490918 59.703125 41.19140625 C60.45722656 41.75754639 61.21132813 42.32368652 61.98828125 42.90698242 C62.53355469 43.3991626 63.07882812 43.89134277 63.640625 44.3984375 C63.640625 45.0584375 63.640625 45.7184375 63.640625 46.3984375 C63.14125931 46.640746 62.64189362 46.8830545 62.12739563 47.13270569 C55.73322086 50.23647337 49.34243618 53.34717118 42.953125 56.4609375 C41.93275146 56.95798187 40.91237793 57.45502625 39.86108398 57.96713257 C25.83498581 64.80564313 11.88233134 71.75327463 -1.8894043 79.09204102 C-3.48328979 79.93400024 -3.48328979 79.93400024 -5.109375 80.79296875 C-6.01171875 81.27612549 -6.9140625 81.75928223 -7.84375 82.25708008 C-10.42646243 83.42887556 -12.53298057 84.14693875 -15.359375 84.3984375 C-18.01612233 82.83492643 -20.30564793 81.26529272 -22.734375 79.3984375 C-24.23536454 78.29160657 -25.73944817 77.18896312 -27.24609375 76.08984375 C-28.05868652 75.49574707 -28.8712793 74.90165039 -29.70849609 74.28955078 C-34.55971257 70.82873638 -39.55317194 67.58617337 -44.546875 64.3359375 C-45.52640137 63.69333984 -46.50592773 63.05074219 -47.51513672 62.38867188 C-52.02754695 59.45268015 -56.46276843 56.64511581 -61.359375 54.3984375 C-61.359375 53.7384375 -61.359375 53.0784375 -61.359375 52.3984375 C-62.01292969 52.16382813 -62.66648437 51.92921875 -63.33984375 51.6875 C-67.29061652 50.00088291 -70.94641758 47.90417275 -74.671875 45.7734375 C-75.41244141 45.35320313 -76.15300781 44.93296875 -76.91601562 44.5 C-78.73206511 43.46895255 -80.54594033 42.43407704 -82.359375 41.3984375 C-82.359375 40.7384375 -82.359375 40.0784375 -82.359375 39.3984375 C-74.37253977 35.0406318 -66.37176093 30.70908464 -58.359375 26.3984375 C-57.38822754 25.87572266 -56.41708008 25.35300781 -55.41650391 24.81445312 C-6.18051914 -1.57582773 -6.18051914 -1.57582773 0 0 Z " fill="#3B3734" transform="translate(700.359375,719.6015625)"/>
    <path d="M0 0 C7.48553018 2.64010615 14.61290678 6.19385619 21.7734375 9.59765625 C22.53199036 9.95652924 23.29054321 10.31540222 24.07208252 10.68515015 C35.67597907 16.17755095 47.145989 21.84958557 58.3984375 28.03515625 C59.29385254 28.5245166 60.18926758 29.01387695 61.11181641 29.51806641 C66.8838371 32.67278274 72.64614123 35.84462247 78.3984375 39.03515625 C78.3984375 39.69515625 78.3984375 40.35515625 78.3984375 41.03515625 C77.49867188 41.52242187 76.59890625 42.0096875 75.671875 42.51171875 C57.4660125 52.49526752 40.22251162 64.00641519 23.12109375 75.7578125 C22.31043457 76.31227051 21.49977539 76.86672852 20.66455078 77.43798828 C19.21469495 78.45985392 17.78786648 79.51572993 16.39404297 80.61279297 C11.97394183 84.07288292 11.97394183 84.07288292 9.16015625 83.88842773 C5.56729552 82.77836336 2.33990175 81.13537771 -0.97265625 79.38671875 C-1.68310593 79.01822815 -2.3935556 78.64973755 -3.12553406 78.27008057 C-4.64525104 77.4810665 -6.16352827 76.6892742 -7.68048096 75.8949585 C-10.85209848 74.23450268 -14.03088605 72.58800889 -17.20941162 70.94082642 C-18.79427585 70.11937984 -20.37879042 69.29725826 -21.96295166 68.47445679 C-37.01598419 60.6584515 -52.20937935 53.15965482 -67.6015625 46.03515625 C-66.21522909 42.76113413 -64.75649538 41.10702377 -61.8828125 39.0390625 C-61.12516602 38.48742432 -60.36751953 37.93578613 -59.58691406 37.36743164 C-58.76674805 36.78340576 -57.94658203 36.19937988 -57.1015625 35.59765625 C-56.24788086 34.98075928 -55.39419922 34.3638623 -54.51464844 33.72827148 C-52.74059977 32.44714136 -50.96420323 31.16925656 -49.18554688 29.89453125 C-46.82711735 28.19746027 -44.48467678 26.48133295 -42.1484375 24.75390625 C-6.26096068 -1.67728556 -6.26096068 -1.67728556 0 0 Z " fill="#3A3633" transform="translate(509.6015625,719.96484375)"/>
    <path d="M0 0 C0.83273437 0.53109375 1.66546875 1.0621875 2.5234375 1.609375 C3.10955811 1.95597168 3.69567871 2.30256836 4.29956055 2.65966797 C6.50687549 3.97612519 8.67130429 5.34888309 10.8359375 6.734375 C11.65408936 7.25499512 12.47224121 7.77561523 13.31518555 8.31201172 C28.01555349 17.71508581 42.60693289 27.32408157 56.71875 37.59375 C59.6115039 39.67266506 62.54897686 41.64993802 65.5234375 43.609375 C64.33346553 47.17929092 63.66391062 47.39494436 60.4921875 49.18359375 C59.63117432 49.67811035 58.77016113 50.17262695 57.88305664 50.68212891 C56.93938232 51.21499512 55.99570801 51.74786133 55.0234375 52.296875 C38.55163374 61.81936015 22.0989868 71.68761317 7.02368164 83.33642578 C0.7035025 88.18128933 0.7035025 88.18128933 -2.4765625 88.609375 C-5.58941807 87.08732133 -8.24007313 85.03213839 -10.9765625 82.921875 C-12.46516911 81.81249028 -13.95472811 80.70438218 -15.4453125 79.59765625 C-16.14140625 79.07252441 -16.8375 78.54739258 -17.5546875 78.00634766 C-19.60234581 76.47344454 -19.60234581 76.47344454 -22.4453125 74.83984375 C-24.4765625 73.609375 -24.4765625 73.609375 -25.4765625 71.609375 C-26.1778125 71.34125 -26.8790625 71.073125 -27.6015625 70.796875 C-30.13666303 69.74976826 -31.80744139 68.72437565 -33.9765625 67.109375 C-36.69547858 65.09249852 -39.23895917 63.68857611 -42.4765625 62.609375 C-42.4765625 61.949375 -42.4765625 61.289375 -42.4765625 60.609375 C-43.19674561 60.34060547 -43.91692871 60.07183594 -44.65893555 59.79492188 C-49.49899155 57.7584162 -53.8333552 54.86838248 -58.2890625 52.109375 C-59.26810547 51.51511719 -60.24714844 50.92085937 -61.25585938 50.30859375 C-62.18076172 49.73753906 -63.10566406 49.16648437 -64.05859375 48.578125 C-64.90655518 48.05669922 -65.7545166 47.53527344 -66.62817383 46.99804688 C-67.23814209 46.53978516 -67.84811035 46.08152344 -68.4765625 45.609375 C-68.4765625 44.949375 -68.4765625 44.289375 -68.4765625 43.609375 C-66.30766375 41.88570474 -64.13096138 40.30294812 -61.8515625 38.734375 C-61.11663574 38.22261719 -60.38170898 37.71085938 -59.62451172 37.18359375 C-48.81433528 29.70477386 -37.86708701 22.42190477 -26.8924408 15.18731689 C-23.07981875 12.67366722 -19.28421913 10.13644851 -15.49609375 7.5859375 C-13.80297028 6.46740627 -12.10903393 5.35010394 -10.4140625 4.234375 C-9.29185303 3.46673828 -9.29185303 3.46673828 -8.14697266 2.68359375 C-3.21986814 -0.50786564 -3.21986814 -0.50786564 0 0 Z " fill="#3B3734" transform="translate(604.4765625,768.390625)"/>
    <path d="M0 0 C3.39668311 0.96473311 6.50917841 2.35073775 9.6887207 3.8605957 C10.69279968 4.33033813 10.69279968 4.33033813 11.71716309 4.80957031 C13.90879094 5.83818305 16.0958887 6.87599142 18.2824707 7.9152832 C19.03157715 8.26943298 19.78068359 8.62358276 20.55249023 8.98846436 C31.38950155 14.1157671 42.13360512 19.40791776 52.7824707 24.9152832 C53.94842773 25.51743652 55.11438477 26.11958984 56.31567383 26.73999023 C71.56989768 34.70811564 71.56989768 34.70811564 75.7824707 37.7902832 C75.7824707 38.4502832 75.7824707 39.1102832 75.7824707 39.7902832 C73.8840332 41.4465332 73.8840332 41.4465332 71.4074707 43.2902832 C69.05342708 45.05394763 66.8632802 46.7094737 64.7824707 48.7902832 C63.6647704 49.61279599 62.53847987 50.42366909 61.4074707 51.2277832 C56.60104333 54.79327842 52.27555921 58.83409869 47.9074707 62.91137695 C45.64187801 65.02217988 43.32369222 67.05830408 40.9777832 69.0793457 C36.35147098 73.1111449 31.9972845 77.39162861 27.6574707 81.7277832 C26.49924805 82.86763672 26.49924805 82.86763672 25.31762695 84.03051758 C20.67252626 88.66374834 16.54238865 93.41097648 12.7824707 98.7902832 C9.7824707 96.7902832 9.7824707 96.7902832 9.12231445 94.22387695 C8.9231543 92.74081055 8.9231543 92.74081055 8.7199707 91.2277832 C8.36068004 88.30651508 8.36068004 88.30651508 7.7824707 85.7902832 C6.7924707 85.2952832 6.7924707 85.2952832 5.7824707 84.7902832 C5.10888672 83.10839844 5.10888672 83.10839844 4.47387695 80.91137695 C2.7094295 75.31194567 0.26879624 70.13222824 -2.2800293 64.8527832 C-2.72668945 63.90854492 -3.17334961 62.96430664 -3.63354492 61.99145508 C-5.89377055 57.0277936 -5.89377055 57.0277936 -9.2175293 52.7902832 C-10.03833861 51.36922218 -10.82659423 49.92915698 -11.5925293 48.4777832 C-16.46224377 39.57845119 -23.61447257 33.33683577 -31.2175293 26.7902832 C-29.87993685 23.74791606 -28.51160485 21.91403323 -25.9675293 19.7902832 C-25.26499023 19.19602539 -24.56245117 18.60176758 -23.83862305 17.98950195 C-22.97366211 17.26375977 -22.10870117 16.53801758 -21.2175293 15.7902832 C-20.06128854 14.79829855 -18.90644029 13.80468944 -17.75268555 12.80981445 C-10.9872989 6.98040713 -10.9872989 6.98040713 -8.79418945 5.13647461 C-7.36503474 3.916227 -5.98155201 2.6429859 -4.60424805 1.36450195 C-2.2175293 -0.2097168 -2.2175293 -0.2097168 0 0 Z " fill="#625F5E" transform="translate(429.217529296875,776.209716796875)"/>
    <path d="M0 0 C2.27466605 1.7588819 4.41721767 3.5329878 6.5625 5.4375 C7.17585205 5.9722998 7.7892041 6.50709961 8.42114258 7.05810547 C13.27910962 11.31095179 18.0569373 15.6509554 22.79296875 20.0390625 C25.03981008 22.1261911 25.03981008 22.1261911 28 24 C28 26 28 26 26.5390625 27.5078125 C25.59160156 28.30832031 25.59160156 28.30832031 24.625 29.125 C23.99851562 29.66382813 23.37203125 30.20265625 22.7265625 30.7578125 C21 32 21 32 19 32 C18.7421875 32.57363281 18.484375 33.14726563 18.21875 33.73828125 C16.88852551 36.20687093 15.33247674 38.06588246 13.5 40.1875 C0.08795739 56.80677018 -7.71838472 76.79615087 -14 97 C-14.99 97 -15.98 97 -17 97 C-22 91.65116279 -22 91.65116279 -22 89 C-22.66 89 -23.32 89 -24 89 C-26.125 87.125 -26.125 87.125 -28 85 C-28 84.34 -28 83.68 -28 83 C-28.66 83 -29.32 83 -30 83 C-31.48046875 81.49609375 -31.48046875 81.49609375 -33.1875 79.4375 C-38.01357782 73.77864784 -42.5263038 68.74792938 -49 65 C-51.8125 62.4375 -51.8125 62.4375 -54 60 C-54 59.34 -54 58.68 -54 58 C-54.59095459 57.72744385 -55.18190918 57.4548877 -55.79077148 57.17407227 C-57.94246206 56.03057796 -59.5328185 54.82847878 -61.34765625 53.21484375 C-61.95287109 52.68439453 -62.55808594 52.15394531 -63.18164062 51.60742188 C-64.43967065 50.49047933 -65.69748178 49.37329019 -66.95507812 48.25585938 C-67.55900391 47.72669922 -68.16292969 47.19753906 -68.78515625 46.65234375 C-69.33051025 46.16757568 -69.87586426 45.68280762 -70.43774414 45.18334961 C-72.11025005 43.78506185 -72.11025005 43.78506185 -75 43 C-76.95216435 41.04783565 -77.84826645 39.46800047 -79 37 C-59.64181697 25.75091411 -39.66225759 15.53754907 -19.43414307 5.94784546 C-18.10972869 5.31912009 -16.78706807 4.68668623 -15.46624756 4.05044556 C-13.62782551 3.16729577 -11.78087351 2.30196901 -9.93359375 1.4375 C-8.88228271 0.94121094 -7.83097168 0.44492187 -6.74780273 -0.06640625 C-3.83750556 -1.05520913 -2.7716363 -1.21858346 0 0 Z " fill="#625F5E" transform="translate(780,777)"/>
    <path d="M0 0 C3.44074012 2.06757677 6.37649485 4.52744196 9.38671875 7.171875 C9.98419922 7.6875 10.58167969 8.203125 11.19726562 8.734375 C12.66134284 9.99933772 14.1184903 11.27231334 15.57421875 12.546875 C10.18433111 18.90417837 10.18433111 18.90417837 7.453125 21.78125 C-8.62416159 38.83376195 -18.30315546 62.16659723 -24.42578125 84.546875 C-27.71668005 83.44990873 -28.39374842 82.69885644 -30.55078125 80.109375 C-31.16308594 79.39007812 -31.77539062 78.67078125 -32.40625 77.9296875 C-33.07269531 77.14335938 -33.73914063 76.35703125 -34.42578125 75.546875 C-39.75644793 69.40273136 -45.17564089 63.75317749 -51.42578125 58.546875 C-52.57207851 57.54740683 -53.71792237 56.54741839 -54.86328125 55.546875 C-58.3306486 52.55306013 -61.997647 49.85111272 -65.703125 47.16015625 C-66.27160156 46.62777344 -66.84007812 46.09539063 -67.42578125 45.546875 C-67.42578125 44.556875 -67.42578125 43.566875 -67.42578125 42.546875 C-65.28515625 40.77734375 -65.28515625 40.77734375 -62.17578125 38.734375 C-60.97438055 37.93361017 -59.77392083 37.13143245 -58.57421875 36.328125 C-57.91131836 35.88726563 -57.24841797 35.44640625 -56.56542969 34.9921875 C-53.4477215 32.88620479 -50.38870529 30.69988071 -47.3215332 28.52124023 C-37.60467629 21.63332975 -27.69709635 15.14004604 -17.56201172 8.88671875 C-15.52472751 7.6089341 -13.52126785 6.29153235 -11.5234375 4.953125 C-10.93103271 4.56431152 -10.33862793 4.17549805 -9.72827148 3.77490234 C-8.17517144 2.7536673 -6.6320411 1.71731368 -5.08984375 0.6796875 C-2.42578125 -0.453125 -2.42578125 -0.453125 0 0 Z " fill="#3C3835" transform="translate(685.42578125,824.453125)"/>
    <path d="M0 0 C3.67635293 1.93437523 7.22709593 4.02147897 10.76171875 6.203125 C11.54353516 6.68410645 12.32535156 7.16508789 13.13085938 7.66064453 C27.11280506 16.3317683 40.73455755 25.5345501 53.99023438 35.27880859 C54.67794922 35.7836377 55.36566406 36.2884668 56.07421875 36.80859375 C56.70972656 37.27571777 57.34523438 37.7428418 58 38.22412109 C59.9188825 39.6062167 59.9188825 39.6062167 62.76171875 41.12890625 C63.42171875 41.56589844 64.08171875 42.00289062 64.76171875 42.453125 C64.76171875 43.443125 64.76171875 44.433125 64.76171875 45.453125 C63.14453125 46.9609375 63.14453125 46.9609375 60.88671875 48.578125 C55.54080909 52.56462237 50.67417674 56.95003851 45.76171875 61.453125 C44.76782961 62.34345645 43.77300833 63.23274823 42.77734375 64.12109375 C31.96410972 73.25145993 31.96410972 73.25145993 23.76171875 84.453125 C23.10171875 84.453125 22.44171875 84.453125 21.76171875 84.453125 C21.38402344 83.20402344 21.00632812 81.95492187 20.6171875 80.66796875 C12.93508013 56.06372005 2.39869907 33.57154802 -16.30078125 15.453125 C-18.23828125 13.453125 -18.23828125 13.453125 -18.23828125 11.453125 C-16.43413996 9.86010663 -14.48874487 8.52469545 -12.53125 7.125 C-11.01588153 6.02009761 -9.53689843 4.86329667 -8.1015625 3.65625 C-7.08642578 2.81320312 -7.08642578 2.81320312 -6.05078125 1.953125 C-5.43847656 1.4271875 -4.82617188 0.90125 -4.1953125 0.359375 C-2.23828125 -0.546875 -2.23828125 -0.546875 0 0 Z " fill="#3D3936" transform="translate(523.23828125,824.546875)"/>
    <path d="M0 0 C5.83651885 0.46434183 10.25397436 1.71704156 15.4375 4.5 C16.10910156 4.84804688 16.78070312 5.19609375 17.47265625 5.5546875 C19.65539858 6.69035787 21.82781868 7.84427301 24 9 C25.60514546 9.84436486 27.21061887 10.68810656 28.81640625 11.53125 C32.88551776 13.67284354 36.94493149 15.83194357 41 18 C41 18.66 41 19.32 41 20 C36.26830866 18.55490233 31.92336895 16.60090665 27.51953125 14.375 C26.82486252 14.02743652 26.13019379 13.67987305 25.41447449 13.32177734 C23.95545772 12.59076619 22.49740726 11.85782351 21.0402832 11.12304688 C18.81105161 9.99926985 16.57865907 8.88198035 14.34570312 7.765625 C12.92428944 7.05246135 11.50305901 6.33893232 10.08203125 5.625 C9.08354912 5.12492432 9.08354912 5.12492432 8.06489563 4.61474609 C5.25720787 3.19648146 2.62150589 1.74767059 0 0 Z " fill="#787574" transform="translate(529,713)"/>
    <path d="M0 0 C-1.53844363 3.5897018 -3.71511548 6.03837897 -6.375 8.875 C-9.64276926 12.43218522 -12.50193901 15.87276881 -15 20 C-15.33 19.34 -15.66 18.68 -16 18 C-17.65 18.33 -19.3 18.66 -21 19 C-19.83593677 17.83593677 -18.67129061 16.67245135 -17.50390625 15.51171875 C-16.4596661 14.46205398 -15.42652024 13.40128152 -14.40234375 12.33203125 C-12.97138652 10.85185191 -11.48847779 9.42232322 -10 8 C-9.34 8 -8.68 8 -8 8 C-7.7525 7.4225 -7.505 6.845 -7.25 6.25 C-5.58207452 3.24773413 -3.67725381 0 0 0 Z " fill="#9D9C9B" transform="translate(866,433)"/>
    <path d="M0 0 C3.30653354 1.41088411 5.1547817 3.05531369 7.4375 5.8125 C10.16564361 9.0404113 12.96702285 12.05893125 16 15 C14.35 15.66 12.7 16.32 11 17 C10.45730469 16.16855469 9.91460937 15.33710938 9.35546875 14.48046875 C8.64003906 13.39378906 7.92460937 12.30710937 7.1875 11.1875 C6.47980469 10.10855469 5.77210938 9.02960938 5.04296875 7.91796875 C3.18163697 5.07963529 3.18163697 5.07963529 1.23828125 3.23828125 C0.82964844 2.82964844 0.42101562 2.42101562 0 2 C0 1.34 0 0.68 0 0 Z " fill="#A09E9E" transform="translate(339,432)"/>
    <path d="M0 0 C0.33 0 0.66 0 1 0 C0.19500136 6.03748977 -0.88482498 12.01270113 -2 18 C-2.33 18 -2.66 18 -3 18 C-3 16.02 -3 14.04 -3 12 C-4.98 12.99 -4.98 12.99 -7 14 C-6.43726296 10.0397381 -5.26476935 7.47032673 -3 4.1875 C-2.46375 3.39730469 -1.9275 2.60710937 -1.375 1.79296875 C-0.694375 0.90544922 -0.694375 0.90544922 0 0 Z " fill="#524E4B" transform="translate(1147,353)"/>
    <path d="M0 0 C0.7734375 0.433125 0.7734375 0.433125 1.5625 0.875 C4.62356725 2.28780027 7.74944918 3.1248517 11 4 C11 4.66 11 5.32 11 6 C11.99 5.67 12.98 5.34 14 5 C16.1875 5.9375 16.1875 5.9375 18 7 C18 7.66 18 8.32 18 9 C19.32 9 20.64 9 22 9 C22 8.34 22 7.68 22 7 C23.32 7.33 24.64 7.66 26 8 C23.875 9.625 23.875 9.625 21 11 C18.2421875 10.234375 18.2421875 10.234375 15 9 C13.89140625 8.62101563 12.7828125 8.24203125 11.640625 7.8515625 C10.52171875 7.44679688 9.4028125 7.04203125 8.25 6.625 C7.12078125 6.22539063 5.9915625 5.82578125 4.828125 5.4140625 C2 4 2 4 0.609375 1.8359375 C0.40828125 1.23007812 0.2071875 0.62421875 0 0 Z " fill="#868483" transform="translate(486,692)"/>
    <path d="M0 0 C0.66 0.33 1.32 0.66 2 1 C-2.0114936 5.39970265 -6.58833101 9.42485876 -12 12 C-13.32 11.67 -14.64 11.34 -16 11 C-10.72 7.37 -5.44 3.74 0 0 Z " fill="#5E5A58" transform="translate(499,723)"/>
    <path d="M0 0 C1.35304209 4.05912626 0.15216503 5.77149591 -1.4375 9.6875 C-1.91058594 10.86699219 -2.38367188 12.04648437 -2.87109375 13.26171875 C-3.24363281 14.16535156 -3.61617187 15.06898438 -4 16 C-5.20628008 13.66785852 -6.1654738 11.50357861 -7 9 C-5.56640625 6.73828125 -5.56640625 6.73828125 -3.5625 4.3125 C-2.90378906 3.50425781 -2.24507812 2.69601562 -1.56640625 1.86328125 C-1.04949219 1.24839844 -0.53257812 0.63351562 0 0 Z " fill="#858281" transform="translate(1006,393)"/>
    <path d="M0 0 C0.33 0 0.66 0 1 0 C1.33 2.97 1.66 5.94 2 9 C1.34 9 0.68 9 0 9 C-0.04898438 9.64324219 -0.09796875 10.28648437 -0.1484375 10.94921875 C-0.76167388 18.36092052 -1.79842569 25.66223066 -3 33 C-3.33 33 -3.66 33 -4 33 C-4.28144331 25.8231955 -3.19770859 19.06486215 -2 12 C-1.80921875 10.84371094 -1.6184375 9.68742188 -1.421875 8.49609375 C-0.95360579 5.66306504 -0.47950909 2.83114411 0 0 Z " fill="#7E7B79" transform="translate(988,521)"/>
    <path d="M0 0 C3 1 3 1 4.640625 3.80078125 C5.17171875 4.95964844 5.7028125 6.11851562 6.25 7.3125 C6.79140625 8.46363281 7.3328125 9.61476563 7.890625 10.80078125 C9.03164972 14.09127157 8.99307505 14.86023055 8 18 C6.66180502 15.3773768 5.3292849 12.75213401 4 10.125 C3.6184375 9.37863281 3.236875 8.63226563 2.84375 7.86328125 C2.4828125 7.14785156 2.121875 6.43242187 1.75 5.6953125 C1.41484375 5.03547363 1.0796875 4.37563477 0.734375 3.69580078 C0 2 0 2 0 0 Z " fill="#A09F9E" transform="translate(358,461)"/>
    <path d="M0 0 C5.57066814 1.61256183 11.0941154 3.88647249 16 7 C16.33 7.99 16.66 8.98 17 10 C11.42933186 8.38743817 5.9058846 6.11352751 1 3 C0.67 2.01 0.34 1.02 0 0 Z " fill="#7E7C7B" transform="translate(628,662)"/>
    <path d="M0 0 C2.75927344 2.75927344 2.51783243 5.21154052 3 9 C3.33 9.33 3.66 9.66 4 10 C4.07325168 12.86267567 4.09238205 15.700719 4.0625 18.5625 C4.05798828 19.36880859 4.05347656 20.17511719 4.04882812 21.00585938 C4.03700518 23.00393756 4.01906914 25.00197783 4 27 C3.67 27 3.34 27 3 27 C2.49578271 23.25055444 1.99735969 19.50036087 1.5 15.75 C1.35691406 14.68652344 1.21382812 13.62304688 1.06640625 12.52734375 C0.93105469 11.50253906 0.79570312 10.47773437 0.65625 9.421875 C0.53056641 8.47924805 0.40488281 7.53662109 0.27539062 6.56542969 C0 4 0 4 0 0 Z " fill="#908E8D" transform="translate(235,553)"/>
    <path d="M0 0 C0.99 0.66 1.98 1.32 3 2 C0.42474285 3.53617083 -2.158674 5.05388201 -4.75 6.5625 C-5.47960937 7.00013672 -6.20921875 7.43777344 -6.9609375 7.88867188 C-7.66992188 8.29794922 -8.37890625 8.70722656 -9.109375 9.12890625 C-10.08342285 9.70233765 -10.08342285 9.70233765 -11.07714844 10.28735352 C-13.4410801 11.16347293 -14.65942846 10.82193222 -17 10 C-16.01 10 -15.02 10 -14 10 C-14 9.34 -14 8.68 -14 8 C-10.63316085 5.56839395 -9.26649636 5 -5 5 C-5 4.34 -5 3.68 -5 3 C-2.5 1.375 -2.5 1.375 0 0 Z " fill="#7F7D7C" transform="translate(618,740)"/>
    <path d="M0 0 C0.33 0 0.66 0 1 0 C0.03644647 18.82004556 0.03644647 18.82004556 -1 28 C-1.33 28 -1.66 28 -2 28 C-2 20.08 -2 12.16 -2 4 C-1.34 4 -0.68 4 0 4 C0 2.68 0 1.36 0 0 Z " fill="#949291" transform="translate(968,572)"/>
    <path d="M0 0 C6.49142565 0.42335385 11.33492989 2.91099799 17 6 C16.01 6.66 15.02 7.32 14 8 C9.38 5.69 4.76 3.38 0 1 C0 0.67 0 0.34 0 0 Z " fill="#797776" transform="translate(334,503)"/>
    <path d="M0 0 C5.47932789 1.54545146 10.11429181 4.15543212 15 7 C12.04893565 8.25348607 11.02593537 8.01044806 7.984375 6.78515625 C6.91703125 6.21667969 5.8496875 5.64820313 4.75 5.0625 C3.67234375 4.49660156 2.5946875 3.93070313 1.484375 3.34765625 C0.66453125 2.90292969 -0.1553125 2.45820312 -1 2 C-0.67 1.34 -0.34 0.68 0 0 Z " fill="#7D7B7A" transform="translate(468,795)"/>
    <path d="M0 0 C7.59064664 0.48701051 14.67059167 1.99763587 22 4 C22 4.33 22 4.66 22 5 C20.02 5.33 18.04 5.66 16 6 C16 5.34 16 4.68 16 4 C14.68 4.33 13.36 4.66 12 5 C12 4.34 12 3.68 12 3 C10.68 3.33 9.36 3.66 8 4 C8 3.34 8 2.68 8 2 C7.4225 2.226875 6.845 2.45375 6.25 2.6875 C4 3 4 3 1.859375 1.51953125 C1.24578125 1.01808594 0.6321875 0.51664063 0 0 Z " fill="#868483" transform="translate(474,626)"/>
    <path d="M0 0 C2 1.6875 2 1.6875 4 4 C4.1875 6.5625 4.1875 6.5625 4 9 C4.33 9.99 4.66 10.98 5 12 C4.72428861 14.00875442 4.39764263 16.01178687 4 18 C3.67 18 3.34 18 3 18 C2.49309416 15.93918639 1.99475381 13.87626474 1.5 11.8125 C1.2215625 10.66394531 0.943125 9.51539063 0.65625 8.33203125 C0.08504615 5.43181171 -0.13283779 2.93903615 0 0 Z " fill="#83807E" transform="translate(58,353)"/>
    <path d="M0 0 C4.69267989 4.0409188 6.7650674 8.26908345 9 14 C8.34 14.66 7.68 15.32 7 16 C5.82558465 13.89983377 4.66035988 11.79541245 3.5 9.6875 C3.16613281 9.09259766 2.83226562 8.49769531 2.48828125 7.88476562 C0.93174886 5.04171156 0 3.29339012 0 0 Z " fill="#868483" transform="translate(424,833)"/>
    <path d="M0 0 C0.66 0.33 1.32 0.66 2 1 C0.02579865 3.52259061 -0.96745642 3.9929808 -4.1875 4.6875 C-5.5796875 4.8421875 -5.5796875 4.8421875 -7 5 C-7 5.66 -7 6.32 -7 7 C-8.98 7.66 -10.96 8.32 -13 9 C-13.33 8.34 -13.66 7.68 -14 7 C-11.71296692 5.80274117 -9.42115138 4.61702982 -7.125 3.4375 C-6.14853516 2.92413086 -6.14853516 2.92413086 -5.15234375 2.40039062 C-3.46470143 1.53917109 -1.73420407 0.76313297 0 0 Z " fill="#838180" transform="translate(742,792)"/>
    <path d="M0 0 C0.66 0 1.32 0 2 0 C3.00484204 1.95585325 4.00373805 3.91476237 5 5.875 C5.556875 6.96554687 6.11375 8.05609375 6.6875 9.1796875 C8 12 8 12 8 14 C5 13 5 13 3.61328125 10.8203125 C3.18402344 9.93085938 2.75476563 9.04140625 2.3125 8.125 C1.87550781 7.24070312 1.43851563 6.35640625 0.98828125 5.4453125 C0 3 0 3 0 0 Z " fill="#949392" transform="translate(634,496)"/>
    <path d="M0 0 C0.66 0 1.32 0 2 0 C2.33 2.64 2.66 5.28 3 8 C2.67 7.34 2.34 6.68 2 6 C1.34 6 0.68 6 0 6 C-0.04898438 6.60328125 -0.09796875 7.2065625 -0.1484375 7.828125 C-0.22320313 8.62734375 -0.29796875 9.4265625 -0.375 10.25 C-0.44460938 11.03890625 -0.51421875 11.8278125 -0.5859375 12.640625 C-1.01507113 15.085877 -1.78600638 16.84836903 -3 19 C-1.29478458 1.29478458 -1.29478458 1.29478458 0 0 Z " fill="#AEADAC" transform="translate(605,402)"/>
    <path d="M0 0 C1.65 0.33 3.3 0.66 5 1 C5 1.66 5 2.32 5 3 C3.38007835 3.86375896 1.75388139 4.71575854 0.125 5.5625 C-1.23238281 6.27599609 -1.23238281 6.27599609 -2.6171875 7.00390625 C-3.40351562 7.33261719 -4.18984375 7.66132812 -5 8 C-5.66 7.67 -6.32 7.34 -7 7 C-4.82575883 4.49962266 -3.26954202 3.56371414 0 3 C0 2.01 0 1.02 0 0 Z " fill="#868483" transform="translate(580,658)"/>
    <path d="M0 0 C0.33 0 0.66 0 1 0 C1.14715692 7.3905476 0.70776992 14.64424835 0 22 C-0.33 22 -0.66 22 -1 22 C-1.33 16.39 -1.66 10.78 -2 5 C-1.67 5 -1.34 5 -1 5 C-0.67 3.35 -0.34 1.7 0 0 Z " fill="#797674" transform="translate(1121,530)"/>
    <path d="M0 0 C0.66 0.33 1.32 0.66 2 1 C0.68 2.32 -0.64 3.64 -2 5 C-1.34 5.66 -0.68 6.32 0 7 C-3 8 -3 8 -5.1875 7.0625 C-5.785625 6.711875 -6.38375 6.36125 -7 6 C-7 5.34 -7 4.68 -7 4 C-1.7265625 0.77734375 -1.7265625 0.77734375 0 0 Z " fill="#65615F" transform="translate(625,755)"/>
    <path d="M0 0 C-0.66 0 -1.32 0 -2 0 C-2 0.66 -2 1.32 -2 2 C-5.63 2.66 -9.26 3.32 -13 4 C-12.67 3.01 -12.34 2.02 -12 1 C-10.29296875 0.234375 -10.29296875 0.234375 -8.1875 -0.25 C-7.50042969 -0.42015625 -6.81335938 -0.5903125 -6.10546875 -0.765625 C-3.80500179 -1.02170666 -2.19370273 -0.69015367 0 0 Z " fill="#969594" transform="translate(737,603)"/>
    <path d="M0 0 C0.66 0.33 1.32 0.66 2 1 C-0.57784846 3.64752004 -2.91648098 5.94432065 -6 8 C-7.32 7.67 -8.64 7.34 -10 7 C-6.7 4.69 -3.4 2.38 0 0 Z " fill="#615E5B" transform="translate(654,842)"/>
    <path d="M0 0 C0.66 0.33 1.32 0.66 2 1 C0.79618552 3.49361571 -0.45428722 5.68143083 -2 8 C-3.32 7.67 -4.64 7.34 -6 7 C-4.60667426 3.63279613 -3.0210714 2.0140476 0 0 Z " fill="#5C5956" transform="translate(448,759)"/>
    <path d="M0 0 C7.18421053 0.45614035 7.18421053 0.45614035 11 3 C6.15507803 4.51403812 2.7408989 3.36602172 -2 2 C-1.34 1.34 -0.68 0.68 0 0 Z " fill="#615E5C" transform="translate(206,680)"/>
    <path d="M0 0 C2.625 0.75 2.625 0.75 5 2 C5.33 2.66 5.66 3.32 6 4 C5.13375 3.979375 4.2675 3.95875 3.375 3.9375 C0.14096352 3.99738956 -2.82799897 4.39580933 -6 5 C-4.06745228 2.9754262 -2.36841312 1.57894208 0 0 Z " fill="#686562" transform="translate(602,768)"/>
    <path d="M0 0 C0.639375 0.4125 1.27875 0.825 1.9375 1.25 C1.9375 1.58 1.9375 1.91 1.9375 2.25 C-1.0325 2.25 -4.0025 2.25 -7.0625 2.25 C-7.0625 2.91 -7.0625 3.57 -7.0625 4.25 C-8.0525 4.58 -9.0425 4.91 -10.0625 5.25 C-10.7225 4.59 -11.3825 3.93 -12.0625 3.25 C-4.02748906 -0.98632385 -4.02748906 -0.98632385 0 0 Z " fill="#64615F" transform="translate(701.0625,719.75)"/>
    <path d="M0 0 C2.37590142 3.70416126 2.20500286 6.92984573 2.125 11.25 C2.10695313 12.51328125 2.08890625 13.7765625 2.0703125 15.078125 C2.03550781 16.52445312 2.03550781 16.52445312 2 18 C1.67 18 1.34 18 1 18 C-0.3792223 11.69661213 -1.41117949 6.3503077 0 0 Z " fill="#726F6D" transform="translate(64,376)"/>
    <path d="M0 0 C7.37297297 2.34594595 7.37297297 2.34594595 10 4 C10.33 4.99 10.66 5.98 11 7 C3.62702703 4.65405405 3.62702703 4.65405405 1 3 C0.67 2.01 0.34 1.02 0 0 Z " fill="#595654" transform="translate(472,778)"/>
    <path d="M0 0 C-2 2 -2 2 -4.8203125 2.1953125 C-5.91085937 2.17210937 -7.00140625 2.14890625 -8.125 2.125 C-9.22070312 2.10695313 -10.31640625 2.08890625 -11.4453125 2.0703125 C-12.28835938 2.04710937 -13.13140625 2.02390625 -14 2 C-8.95585048 -1.36276635 -5.96798004 -1.03291962 0 0 Z " fill="#757372" transform="translate(884,639)"/>
    <path d="M0 0 C2.62187494 1.04874998 3.79371361 1.64931313 5.25 4.125 C5.4975 4.74375 5.745 5.3625 6 6 C5.34 6 4.68 6 4 6 C4 7.98 4 9.96 4 12 C1.78600697 8.20458337 0.99019802 4.24370579 0 0 Z " fill="#979694" transform="translate(198,393)"/>
    <path d="M0 0 C3.63 2.31 7.26 4.62 11 7 C7 8 7 8 4.75 6.6875 C3.88375 5.8521875 3.88375 5.8521875 3 5 C3 4.34 3 3.68 3 3 C2.01 3 1.02 3 0 3 C0 2.01 0 1.02 0 0 Z " fill="#65625F" transform="translate(718,731)"/>
    <path d="M0 0 C2.31 0.66 4.62 1.32 7 2 C7 2.99 7 3.98 7 5 C5.68 5.33 4.36 5.66 3 6 C2.01 4.02 1.02 2.04 0 0 Z " fill="#6B6866" transform="translate(483,709)"/>
    <path d="M0 0 C4.12751449 0.60698743 7.3321148 2.03810791 11 4 C10.01 4.66 9.02 5.32 8 6 C5.36 4.68 2.72 3.36 0 2 C0 1.34 0 0.68 0 0 Z " fill="#807E7D" transform="translate(616,674)"/>
    <path d="M0 0 C-0.60825035 4.34464536 -1.26167392 8.67551867 -2 13 C-2.33 13 -2.66 13 -3 13 C-4.4480619 4.83502445 -4.4480619 4.83502445 -2.625 1.4375 C-1 0 -1 0 0 0 Z " fill="#8F8C8B" transform="translate(1148,353)"/>
    <path d="M0 0 C0.66 0.33 1.32 0.66 2 1 C1.67 2.98 1.34 4.96 1 7 C-1.475 6.01 -1.475 6.01 -4 5 C-4 4.34 -4 3.68 -4 3 C-2 1.375 -2 1.375 0 0 Z " fill="#615E5B" transform="translate(540,809)"/>
    <path d="M0 0 C0.33 0.66 0.66 1.32 1 2 C2.98 1.67 4.96 1.34 7 1 C5.7260411 3.03833424 4.38938077 5.03852126 3 7 C2.34 7 1.68 7 1 7 C0.67 4.69 0.34 2.38 0 0 Z " fill="#6B6866" transform="translate(544,902)"/>
    <path d="M0 0 C-7.5 5 -7.5 5 -11 5 C-10 2 -10 2 -8.3125 0.8125 C-5.45030907 -0.19313465 -3.01172092 -0.13689641 0 0 Z " fill="#7B7978" transform="translate(677,713)"/>
    <path d="M0 0 C-2.87949147 2.23960447 -5.76742026 4.29864224 -9 6 C-9.66 5.67 -10.32 5.34 -11 5 C-7.17906575 1.05170128 -5.52310605 -0.1453449 0 0 Z " fill="#82807F" transform="translate(548,679)"/>
    <path d="M0 0 C-1.11575573 3.34726719 -1.51344622 3.62079748 -4.4375 5.25 C-6.2009375 6.11625 -6.2009375 6.11625 -8 7 C-8.66 6.67 -9.32 6.34 -10 6 C-7.35570758 3.077361 -4.105808 0 0 0 Z " fill="#7B7978" transform="translate(558,672)"/>
    <path d="M0 0 C0.33 0 0.66 0 1 0 C1.36504603 1.58086048 1.71660506 3.16483907 2.0625 4.75 C2.25972656 5.63171875 2.45695312 6.5134375 2.66015625 7.421875 C2.99825872 9.98679028 2.81158635 11.57091639 2 14 C2 13.01 2 12.02 2 11 C1.34 11 0.68 11 0 11 C-1.05404945 7.01803543 -0.84098656 4.01804691 0 0 Z " fill="#8D8B8A" transform="translate(372,541)"/>
    <path d="M0 0 C0.33 0.66 0.66 1.32 1 2 C1.66 2 2.32 2 3 2 C3.84098656 6.01804691 4.05404945 9.01803543 3 13 C2.67 13 2.34 13 2 13 C1.34 8.71 0.68 4.42 0 0 Z " fill="#888685" transform="translate(226,504)"/>
    <path d="M0 0 C0.33 0.66 0.66 1.32 1 2 C1.66 2 2.32 2 3 2 C2.67 6.29 2.34 10.58 2 15 C1.67 15 1.34 15 1 15 C0.67 10.05 0.34 5.1 0 0 Z " fill="#797775" transform="translate(81,505)"/>
    <path d="M0 0 C0.66 0.33 1.32 0.66 2 1 C-0.52956528 4.0916909 -3.22454612 4.90931332 -7 6 C-7.33 5.34 -7.66 4.68 -8 4 C-6.71349294 3.30289269 -5.42059335 2.61757124 -4.125 1.9375 C-3.40570312 1.55464844 -2.68640625 1.17179687 -1.9453125 0.77734375 C-1.30335938 0.52082031 -0.66140625 0.26429688 0 0 Z " fill="#817F7E" transform="translate(869,502)"/>
    <path d="M0 0 C0.99 0.33 1.98 0.66 3 1 C4.1875 3.5625 4.1875 3.5625 5 6 C4.01 6.495 4.01 6.495 3 7 C2.34 7.99 1.68 8.98 1 10 C1 8.35 1 6.7 1 5 C0.67 5 0.34 5 0 5 C0 3.35 0 1.7 0 0 Z " fill="#4A4744" transform="translate(61,359)"/>
    <path d="M0 0 C6.625 0.75 6.625 0.75 10 3 C10 3.66 10 4.32 10 5 C6.08788267 3.84414715 3.1254959 2.64465038 0 0 Z " fill="#5D5957" transform="translate(483,785)"/>
    <path d="M0 0 C-2.22825644 2.22825644 -3.65761628 2.69239369 -6.625 3.625 C-7.44226563 3.88539063 -8.25953125 4.14578125 -9.1015625 4.4140625 C-9.72804688 4.60742188 -10.35453125 4.80078125 -11 5 C-11 4.34 -11 3.68 -11 3 C-7.28026121 0.15549386 -4.62609198 -0.3227506 0 0 Z " fill="#63605E" transform="translate(752,771)"/>
    <path d="M0 0 C4.05281712 1.22527029 7.44360764 2.69880494 11 5 C9.68 5.33 8.36 5.66 7 6 C7 5.34 7 4.68 7 4 C5.824375 3.7834375 5.824375 3.7834375 4.625 3.5625 C2 3 2 3 0 2 C0 1.34 0 0.68 0 0 Z " fill="#6B6865" transform="translate(564,747)"/>
    <path d="M0 0 C5.75 -0.125 5.75 -0.125 8 1 C8 1.66 8 2.32 8 3 C8.99 2.67 9.98 2.34 11 2 C11.33 2.99 11.66 3.98 12 5 C10.56068883 4.54738642 9.12361001 4.08767021 7.6875 3.625 C6.88699219 3.36976563 6.08648437 3.11453125 5.26171875 2.8515625 C3 2 3 2 0 0 Z " fill="#817F7E" transform="translate(468,686)"/>
    <path d="M0 0 C-1 3 -1 3 -3.9375 4.75 C-5.4534375 5.36875 -5.4534375 5.36875 -7 6 C-7.66 5.67 -8.32 5.34 -9 5 C-6.45523312 2.20075644 -3.92372883 0 0 0 Z " fill="#82807F" transform="translate(572,665)"/>
    <path d="M0 0 C1.32 0.33 2.64 0.66 4 1 C3.67 2.32 3.34 3.64 3 5 C1.35 4.67 -0.3 4.34 -2 4 C-1.34 2.68 -0.68 1.36 0 0 Z " fill="#7D7A79" transform="translate(400,799)"/>
    <path d="M0 0 C6.75 -0.125 6.75 -0.125 9 1 C9 1.66 9 2.32 9 3 C10.32 3.33 11.64 3.66 13 4 C11 5 11 5 8.3984375 4.22265625 C6.90183594 3.64837891 6.90183594 3.64837891 5.375 3.0625 C4.37210937 2.68222656 3.36921875 2.30195312 2.3359375 1.91015625 C1.56507813 1.60980469 0.79421875 1.30945313 0 1 C0 0.67 0 0.34 0 0 Z " fill="#8D8B8A" transform="translate(418,667)"/>
    <path d="M0 0 C3.3 0 6.6 0 10 0 C9 4 9 4 7 6 C7 4.35 7 2.7 7 1 C4.69 1 2.38 1 0 1 C0 0.67 0 0.34 0 0 Z " fill="#A6A5A4" transform="translate(546,513)"/>
    <path d="M0 0 C0.33 0.66 0.66 1.32 1 2 C1.66 2.33 2.32 2.66 3 3 C2.67 3.99 2.34 4.98 2 6 C2.66 6 3.32 6 4 6 C3.67 8.31 3.34 10.62 3 13 C2.67 13 2.34 13 2 13 C1.66127487 11.58461283 1.32925376 10.16762037 1 8.75 C0.814375 7.96109375 0.62875 7.1721875 0.4375 6.359375 C0 4 0 4 0 0 Z " fill="#918E8E" transform="translate(221,481)"/>
    <path d="M0 0 C0.66 0.33 1.32 0.66 2 1 C-0.25 3.5625 -0.25 3.5625 -3 6 C-4.32 5.67 -5.64 5.34 -7 5 C-4.69 3.35 -2.38 1.7 0 0 Z " fill="#817F7E" transform="translate(924,469)"/>
    <path d="M0 0 C-1.29299694 2.88437779 -2.65941363 4.87219421 -5 7 C-5.99 6.67 -6.98 6.34 -8 6 C-7.0479279 4.99403703 -6.08812654 3.99538437 -5.125 3 C-4.59132813 2.443125 -4.05765625 1.88625 -3.5078125 1.3125 C-2 0 -2 0 0 0 Z " fill="#C7C6C6" transform="translate(866,433)"/>
    <path d="M0 0 C0.99 0.33 1.98 0.66 3 1 C3 2.32 3 3.64 3 5 C3.66 5 4.32 5 5 5 C5.33 5.99 5.66 6.98 6 8 C5.34 8.66 4.68 9.32 4 10 C3.32845067 8.71086513 2.66291141 7.41859796 2 6.125 C1.62875 5.40570312 1.2575 4.68640625 0.875 3.9453125 C0 2 0 2 0 0 Z " fill="#72706E" transform="translate(530,869)"/>
    <path d="M0 0 C0.598125 0.20625 1.19625 0.4125 1.8125 0.625 C-0.36174117 3.12537734 -1.91795798 4.06128586 -5.1875 4.625 C-5.1875 3.635 -5.1875 2.645 -5.1875 1.625 C-2.1875 -0.375 -2.1875 -0.375 0 0 Z " fill="#625F5D" transform="translate(623.1875,865.375)"/>
    <path d="M0 0 C4.31392226 0.4793247 6.16569547 1.7457985 9 5 C6 5 6 5 3 4 C3 3.34 3 2.68 3 2 C2.01 1.67 1.02 1.34 0 1 C0 0.67 0 0.34 0 0 Z " fill="#6E6B69" transform="translate(576,838)"/>
    <path d="M0 0 C4.455 0.99 4.455 0.99 9 2 C8.67 2.66 8.34 3.32 8 4 C2.25 3.125 2.25 3.125 0 2 C0 1.34 0 0.68 0 0 Z " fill="#959493" transform="translate(429,489)"/>
    <path d="M0 0 C0.66 0 1.32 0 2 0 C4.09350689 3.4019487 4.17942163 6.05272412 4 10 C2 7 2 7 1.5 4.375 C1.335 3.59125 1.17 2.8075 1 2 C0.34 1.67 -0.32 1.34 -1 1 C-0.67 0.67 -0.34 0.34 0 0 Z " fill="#9C9B9A" transform="translate(369,484)"/>
    <path d="M0 0 C0.66 0 1.32 0 2 0 C1.67 3.63 1.34 7.26 1 11 C0.67 11 0.34 11 0 11 C-1.125 3.375 -1.125 3.375 0 0 Z " fill="#868382" transform="translate(980,481)"/>
    <path d="M0 0 C1.24546405 2.49092811 0.7767578 3.41080733 0 6 C-0.99 5.67 -1.98 5.34 -3 5 C-3.6875 2.9375 -3.6875 2.9375 -4 1 C-2.68 0.67 -1.36 0.34 0 0 Z " fill="#726F6D" transform="translate(661,903)"/>
    <path d="M0 0 C1 3 1 3 0 6 C-0.99 6 -1.98 6 -3 6 C-3.66 4.68 -4.32 3.36 -5 2 C-3.35 2 -1.7 2 0 2 C0 1.34 0 0.68 0 0 Z " fill="#898786" transform="translate(766,868)"/>
    <path d="M0 0 C1.98 1.65 3.96 3.3 6 5 C5.34 5.66 4.68 6.32 4 7 C3.34 6.67 2.68 6.34 2 6 C2 5.34 2 4.68 2 4 C1.34 4 0.68 4 0 4 C0 2.68 0 1.36 0 0 Z " fill="#7C7A79" transform="translate(750,856)"/>
    <path d="M0 0 C3.83736322 0.95934081 4.59660228 1.23609263 7 4 C6.67 4.99 6.34 5.98 6 7 C4.02 4.69 2.04 2.38 0 0 Z " fill="#797675" transform="translate(737,845)"/>
    <path d="M0 0 C-1.39332574 3.36720387 -2.9789286 4.9859524 -6 7 C-6 4 -6 4 -4.125 1.8125 C-2 0 -2 0 0 0 Z " fill="#73716F" transform="translate(469,844)"/>
    <path d="M0 0 C-1 3 -1 3 -4 5 C-6.1875 4.625 -6.1875 4.625 -8 4 C-2.25 0 -2.25 0 0 0 Z " fill="#605D5A" transform="translate(672,832)"/>
    <path d="M0 0 C-0.33 0.99 -0.66 1.98 -1 3 C-4.0625 4.1875 -4.0625 4.1875 -7 5 C-7.33 4.34 -7.66 3.68 -8 3 C-2.25 0 -2.25 0 0 0 Z " fill="#534F4D" transform="translate(646,745)"/>
    <path d="M0 0 C3.45925163 1.2491742 6.14693203 2.67527795 9 5 C4.78087253 4.5205537 2.20336822 3.83374881 -1 1 C-0.67 0.67 -0.34 0.34 0 0 Z " fill="#5D5A57" transform="translate(553,741)"/>
    <path d="M0 0 C-3.26545761 1.88391785 -6.28111761 2.49287967 -10 3 C-6.46873184 -0.69178035 -5.02635024 -1.19045137 0 0 Z " fill="#696664" transform="translate(511,720)"/>
    <path d="M0 0 C-5.2734375 3.22265625 -5.2734375 3.22265625 -7 4 C-7.66 3.67 -8.32 3.34 -9 3 C-5.83583464 -0.30799106 -4.50236011 -1.35070803 0 0 Z " fill="#82807F" transform="translate(636,734)"/>
    <path d="M0 0 C0.99 0.33 1.98 0.66 3 1 C3 1.66 3 2.32 3 3 C0.69 3.66 -1.62 4.32 -4 5 C-3 2 -3 2 0 0 Z " fill="#939190" transform="translate(681,708)"/>
    <path d="M0 0 C2.4375 0.8125 2.4375 0.8125 5 2 C5.33 2.99 5.66 3.98 6 5 C3.69 4.34 1.38 3.68 -1 3 C-0.67 2.01 -0.34 1.02 0 0 Z " fill="#92908F" transform="translate(523,708)"/>
    <path d="M0 0 C0.66 0.33 1.32 0.66 2 1 C-0.17424117 3.50037734 -1.73045798 4.43628586 -5 5 C-5.33 4.34 -5.66 3.68 -6 3 C-4.03533587 1.93224776 -2.03144641 0.93446535 0 0 Z " fill="#757371" transform="translate(571,682)"/>
    <path d="M0 0 C6.75 0.75 6.75 0.75 9 3 C6 4 6 4 2.8125 2.5625 C1.884375 2.046875 0.95625 1.53125 0 1 C0 0.67 0 0.34 0 0 Z " fill="#777574" transform="translate(353,512)"/>
    <path d="" fill="#CCCBCB" transform="translate(0,0)"/>
    <path d="" fill="#CCCBCB" transform="translate(0,0)"/>
    <path d="" fill="#CCCBCB" transform="translate(0,0)"/>
</svg>
